HIERARCHY
ROOT Hips
{
	OFFSET -3.958830 18.904000 13.208200
	CHANNELS 6 Xposition Yposition Zposition Zrotation Yrotation Xrotation 
	JOINT LHipJoint
	{
		OFFSET 0.000000 0.000000 0.000000
		CHANNELS 3 Zrotation Yrotation Xrotation
		JOINT LeftUpLeg
		{
			OFFSET 1.800000 -1.400000 0.085000
			CHANNELS 3 Zrotation Yrotation Xrotation
			JOINT LeftLeg
			{
				OFFSET 2.215000 -6.000000 0.000000
				CHANNELS 3 Zrotation Yrotation Xrotation
				JOINT LeftFoot
				{
					OFFSET 2.500000 -6.900000 0.000000
					CHANNELS 3 Zrotation Yrotation Xrotation
					JOINT LeftToeBase
					{
						OFFSET 0.200000 -0.500000 1.950000
						CHANNELS 3 Zrotation Yrotation Xrotation
						End Site
						{
							OFFSET 0.000000 0.000000 0.000000
						}
					}
				}
			}
		}
	}
	JOINT RHipJoint
	{
		OFFSET 0.000000 0.000000 0.000000
		CHANNELS 3 Zrotation Yrotation Xrotation
		JOINT RightUpLeg
		{
			OFFSET -1.800000 -1.400000 0.085000
			CHANNELS 3 Zrotation Yrotation Xrotation
			JOINT RightLeg
			{
				OFFSET -2.215000 -6.000000 0.000000
				CHANNELS 3 Zrotation Yrotation Xrotation
				JOINT RightFoot
				{
					OFFSET -2.500000 -6.900000 0.000000
					CHANNELS 3 Zrotation Yrotation Xrotation
					JOINT RightToeBase
					{
						OFFSET -0.200000 -0.500000 1.950000
						CHANNELS 3 Zrotation Yrotation Xrotation
						End Site
						{
							OFFSET 0.000000 0.000000 0.000000
						}
					}
				}
			}
		}
	}
	JOINT LowerBack
	{
		OFFSET 0.000000 0.000000 0.000000
		CHANNELS 3 Zrotation Yrotation Xrotation
		JOINT Spine
		{
			OFFSET -0.087000 1.940000 -0.288900
			CHANNELS 3 Zrotation Yrotation Xrotation
			JOINT Spine1
			{
				OFFSET 0.000000 1.950000 0.060000
				CHANNELS 3 Zrotation Yrotation Xrotation
				JOINT Neck
				{
					OFFSET 0.000000 0.000000 0.000000
					CHANNELS 3 Zrotation Yrotation Xrotation
					JOINT Neck1
					{
						OFFSET 0.000000 1.600000 0.340000
						CHANNELS 3 Zrotation Yrotation Xrotation
						JOINT Head
						{
							OFFSET 0.000000 1.667000 -0.240000
							CHANNELS 3 Zrotation Yrotation Xrotation
							End Site
							{
								OFFSET 0.000000 0.000000 0.000000
							}
						}
					}
				}
				JOINT LeftShoulder
				{
					OFFSET 0.000000 0.000000 0.000000
					CHANNELS 3 Zrotation Yrotation Xrotation
					JOINT LeftArm
					{
						OFFSET 2.700000 1.550000 -0.730000
						CHANNELS 3 Zrotation Yrotation Xrotation
						JOINT LeftForeArm
						{
							OFFSET 5.450000 0.000000 0.000000
							CHANNELS 3 Zrotation Yrotation Xrotation
							JOINT LeftHand
							{
								OFFSET 3.450000 0.000000 0.000000
								CHANNELS 3 Zrotation Yrotation Xrotation
								JOINT LeftHandIndex1
								{
									OFFSET 0.750000 0.000000 0.000000
									CHANNELS 3 Zrotation Yrotation Xrotation
									End Site
									{
										OFFSET 0.000000 0.000000 0.000000
									}
								}
							}
						}
					}
				}
				JOINT RightShoulder
				{
					OFFSET 0.000000 0.000000 0.000000
					CHANNELS 3 Zrotation Yrotation Xrotation
					JOINT RightArm
					{
						OFFSET -2.700000 1.550000 -0.730000
						CHANNELS 3 Zrotation Yrotation Xrotation
						JOINT RightForeArm
						{
							OFFSET -5.450000 0.000000 0.000000
							CHANNELS 3 Zrotation Yrotation Xrotation
							JOINT RightHand
							{
								OFFSET -3.450000 0.000000 0.000000
								CHANNELS 3 Zrotation Yrotation Xrotation
								JOINT RightHandIndex1
								{
									OFFSET -0.750000 0.000000 0.000000
									CHANNELS 3 Zrotation Yrotation Xrotation
									End Site
									{
										OFFSET 0.000000 0.000000 0.000000
									}
								}
							}
						}
					}
				}
			}
		}
	}
}
MOTION
Frames: 4
Frame Time: 0.016667
0.756820 17.405120 -6.743210 -4.152220 -32.554864 -3.103140 -15.511631 13.596581 3.973242 0.328758 2.919827 9.403599 -9.650576 4.835630 -5.052700 0.870903 4.465669 3.054182 0.387650 0.626780 0.101070 17.888186 -9.906134 3.119772 -8.638329 0.173998 -24.513495 4.590281 -1.801728 -0.832074 0.042819 -1.925312 3.732655 0.176300 -0.120840 -0.019490 -2.042901 -3.487733 -8.690112 -5.181539 -2.516559 14.755572 5.763410 -3.974513 -5.665775 2.051231 -1.048441 -15.596883 -7.857079 -0.082847 45.940527 2.910080 -3.661050 -0.403430 -5.807266 -12.003171 4.933338 5.346665 -9.711336 -0.507541 9.671958 -0.554994 0.313758 -3.609994 2.988983 0.001880 -0.124020 0.219810 0.270740 3.522398 13.140155 11.869930 -7.661000 -10.550915 0.348971 -6.687789 -1.275769 -0.335714 3.181015 -1.292274 0.203030 -0.117000 -0.439500 0.254120 
0.761120 17.404250 -6.758520 -3.383460 -32.372926 -4.593498 -15.514850 13.611773 4.025110 -0.426538 3.356486 10.720520 -9.151408 4.834260 -5.482394 0.902305 4.575338 3.049103 0.373630 0.638780 0.061250 17.891319 -9.926617 3.036847 -9.090611 -0.149327 -23.635919 4.230274 -1.827460 -0.707255 0.067072 -2.034478 3.716191 0.212480 -0.047030 -0.026350 -2.044306 -3.548090 -8.642821 -6.143680 -1.993351 16.744739 5.982921 -3.654575 -5.991959 2.110183 -0.940708 -15.697517 -7.344830 -0.446476 43.861743 2.480280 -3.729190 0.221200 -2.420160 -10.794826 4.670223 2.047356 -12.281708 0.151179 10.489677 0.327883 0.320917 -3.690537 2.995213 -0.065650 -0.064570 0.169570 0.298450 -0.018940 12.109737 12.307037 -3.082346 -9.962178 0.248543 -7.577425 -0.370232 -0.351309 3.176470 -1.301566 0.181880 -0.080980 -0.435530 0.283430 
0.763750 17.406320 -6.820770 -1.298639 -32.105945 -9.518013 -15.518330 13.609710 4.171938 -1.966380 4.634555 15.117289 -7.965455 4.906855 -6.814440 0.993299 4.981047 2.978900 0.351620 0.682630 -0.041040 17.915478 -9.966936 2.775924 -10.581615 -1.091690 -20.301567 3.271468 -1.962714 -0.442362 0.111166 -2.412191 3.633749 0.319890 0.132790 -0.044040 -2.085386 -3.712411 -8.490681 -9.095230 -0.202381 22.869019 6.530679 -2.662581 -6.023995 1.932464 -0.456028 -16.026225 -5.588276 -1.325409 38.723729 2.136780 -3.992940 1.343690 7.136493 -8.493822 4.562265 -6.395133 -17.593159 2.445809 12.262233 2.907486 0.381995 -3.868749 3.058235 -0.228060 0.081490 0.035500 0.360740 -9.316443 9.745901 12.290778 9.282906 -6.683635 -0.616153 -10.412512 -0.020772 -0.389057 3.183916 -1.408117 0.126640 0.001270 -0.418710 0.349000 
0.759310 17.401940 -6.890290 -0.126771 -30.978466 -13.247107 -15.605038 13.687035 4.195532 -2.019468 5.294666 18.249468 -7.637045 5.147753 -7.072418 1.071247 5.342971 2.885306 0.329580 0.706070 -0.077350 17.887146 -9.818983 2.540841 -11.656838 -1.768229 -16.979355 2.328476 -2.065517 -0.696772 0.111265 -2.712075 3.548162 0.376660 0.214060 -0.053460 -1.929264 -4.289455 -8.337060 -11.917010 1.520659 25.981115 7.799307 -2.566233 -1.374819 1.854957 -0.047410 -16.811952 -4.110870 -1.760902 34.546814 1.408000 -3.270540 1.172710 12.138020 -9.233805 5.832382 -9.269278 -18.194266 3.279779 13.099321 5.379778 0.496868 -3.996371 3.090009 -0.328630 0.165920 -0.036360 0.361220 -14.477851 9.589059 12.078948 15.872014 -5.346941 -1.231640 -12.000368 -0.716869 -0.444693 3.198348 -1.516580 0.102980 0.038930 -0.396250 0.368740 
